<svg
	viewBox="0 0 50 50"
	xmlns="http://www.w3.org/2000/svg"
>
	<path
		fill="#fff"
		d="M43.9 1H6.1C3.3 1 1 3.3 1 6.1V43.9C1 46.7 3.3 49 6.1 49H43.9C46.7 49 49 46.7 49 43.9V6.1C49 3.3 46.7 1 43.9 1ZM41 5H43C43.4 5 43.8 5.4 43.8 5.8V7.8C43.8 8.2 43.4 8.6 43 8.6H41C40.6 8.6 40.2 8.2 40.2 7.8V5.8C40.2 5.4 40.6 5 41 5ZM35 5H37C37.4 5 37.8 5.4 37.8 5.8V7.8C37.8 8.2 37.4 8.6 37 8.6H35C34.6 8.6 34.2 8.2 34.2 7.8V5.8C34.2 5.4 34.6 5 35 5ZM28.2 5.8C28.2 5.4 28.6 5 29 5H31C31.4 5 31.8 5.4 31.8 5.8V7.8C31.8 8.2 31.4 8.6 31 8.6H29C28.6 8.6 28.2 8.2 28.2 7.8V5.8ZM43.4 46.2H6.6C4.9 46.2 3.5 44.8 3.5 43.1V14.6C3.5 12.9 4.9 11.5 6.6 11.5H43.4C45.1 11.5 46.5 12.9 46.5 14.6V43.1C46.5 44.8 45.1828 46.2 43.4 46.2Z"
	/>
	<path
		fill="#fff"
		d="M11.9 28.6L13.2 24.2999H14.9L16.2 28.6L17.7 24.2999H19.5L16.9 31.7999H15.7L14.1 26.6L12.5 31.7999H11.3L8.69995 24.2999H10.5L11.9 28.6ZM22.8 28.6L24.1 24.2999H25.7999L27.1 28.6L28.6 24.2999H30.4L27.7999 31.7999H26.6L25 26.5L23.4 31.7H22.2L19.6 24.2H21.4L22.8 28.6ZM33.7 28.6L35 24.2999H36.7L38 28.6L39.5 24.2999H41.2999L38.7 31.7999H37.5L35.9 26.6L34.2999 31.7999H33.0999L30.5 24.2999H32.2999L33.7 28.6Z"
	/>
</svg>
